<svg xmlns="http://www.w3.org/2000/svg" width="19.355" height="19.355" viewBox="0 0 19.355 19.355"><defs><style>.a{fill:#666;}</style></defs><path class="a" d="M18.94,14.957l-4.426-4.426a2.807,2.807,0,0,0-3.228-.525L7.256,5.976V3.629L2.418,0,0,2.419,3.627,7.258H5.975L10,11.287a2.813,2.813,0,0,0,.525,3.228l4.426,4.426a1.405,1.405,0,0,0,1.992,0l1.992-1.992a1.412,1.412,0,0,0,0-1.992ZM12.537,8.5a3.977,3.977,0,0,1,2.831,1.172l.733.733A5.351,5.351,0,0,0,17.757,9.3a5.436,5.436,0,0,0,1.433-5.167.452.452,0,0,0-.76-.208L15.617,6.732l-2.567-.427-.427-2.567L15.436.926A.456.456,0,0,0,15.22.163,5.445,5.445,0,0,0,10.057,1.6,5.357,5.357,0,0,0,8.5,5.511l3.1,3.1A4.118,4.118,0,0,1,12.537,8.5ZM8.609,11.6,6.466,9.461.705,15.226a2.419,2.419,0,1,0,3.421,3.421L8.8,13.975a4.059,4.059,0,0,1-.189-2.37ZM2.418,17.842a.907.907,0,1,1,.907-.907A.91.91,0,0,1,2.418,17.842Z" transform="translate(0.004)"/></svg>