<svg xmlns="http://www.w3.org/2000/svg" width="44" height="44" viewBox="0 0 44 44"><defs><style>.a{fill:#001A5F;}.b{fill:#fff;}</style></defs><circle class="a" cx="22" cy="22" r="22"/><path class="b" d="M10.177,0A9.2,9.2,0,0,0,2,4.322a1.141,1.141,0,0,0,.246,1.561L4.3,7.437a1.14,1.14,0,0,0,1.579-.2C7.068,5.75,7.95,4.892,9.808,4.892c1.461,0,3.268.94,3.268,2.357,0,1.071-.884,1.621-2.326,2.43-1.682.943-3.908,2.117-3.908,5.053V15.2a1.14,1.14,0,0,0,1.14,1.14h3.441a1.14,1.14,0,0,0,1.14-1.14v-.274c0-2.035,5.948-2.12,5.948-7.627C18.51,3.146,14.208,0,10.177,0ZM9.7,17.734a3.289,3.289,0,1,0,3.289,3.289A3.293,3.293,0,0,0,9.7,17.734Z" transform="translate(11.37 9.457)"/></svg>