<svg xmlns="http://www.w3.org/2000/svg" width="17.384" height="19.867" viewBox="0 0 17.384 19.867"><defs><style>.a{fill:#227aba;}</style></defs><path class="a" d="M15.832,8.273l-1.26-1.26-6.3,6.3a2.673,2.673,0,0,0,3.781,3.78l7.562-7.561a4.455,4.455,0,0,0-6.3-6.3l-7.94,7.939-.017.016a6.214,6.214,0,0,0,8.789,8.787l.016-.017h0L19.58,14.54l-1.261-1.26L12.9,18.7l-.016.016a4.432,4.432,0,0,1-6.268-6.266l.017-.016h0l7.941-7.938a2.673,2.673,0,0,1,3.781,3.78l-7.562,7.561a.891.891,0,0,1-1.261-1.26l6.3-6.3Z" transform="translate(-3.535 -1.928)"/></svg>