<svg xmlns="http://www.w3.org/2000/svg" width="25.373" height="19.734" viewBox="0 0 25.373 19.734"><defs><style>.a{fill:#666;}</style></defs><path class="a" d="M23.258,2.25H2.114A2.115,2.115,0,0,0,0,4.364v.7H25.373v-.7A2.115,2.115,0,0,0,23.258,2.25ZM0,19.87a2.115,2.115,0,0,0,2.114,2.114H23.258a2.115,2.115,0,0,0,2.114-2.114V6.479H0ZM15.506,9.65a.353.353,0,0,1,.352-.352H22.2a.353.353,0,0,1,.352.352v.7a.353.353,0,0,1-.352.352H15.858a.353.353,0,0,1-.352-.352Zm0,2.819a.353.353,0,0,1,.352-.352H22.2a.353.353,0,0,1,.352.352v.7a.353.353,0,0,1-.352.352H15.858a.353.353,0,0,1-.352-.352Zm0,2.819a.353.353,0,0,1,.352-.352H22.2a.353.353,0,0,1,.352.352v.7a.353.353,0,0,1-.352.352H15.858a.353.353,0,0,1-.352-.352ZM7.753,9.3a2.819,2.819,0,1,1-2.819,2.819A2.822,2.822,0,0,1,7.753,9.3Zm-4.8,8.995a2.823,2.823,0,0,1,2.683-1.947H6a4.537,4.537,0,0,0,3.506,0h.361a2.823,2.823,0,0,1,2.683,1.947.694.694,0,0,1-.687.872H3.643A.7.7,0,0,1,2.956,18.293Z" transform="translate(0 -2.25)"/></svg>