<svg xmlns="http://www.w3.org/2000/svg" width="24.906" height="24.906" viewBox="0 0 24.906 24.906"><defs><style>.a{fill:#001a5f;}</style></defs><path class="a" d="M27.14,24.2,13.8,12.053l.621-.623a2.848,2.848,0,0,0,.825-1.839c.024-.011.049-.022.072-.035l2.5-1.566a1.054,1.054,0,0,0-.056-1.4L13.407,2.223a1.047,1.047,0,0,0-1.395-.056L10.45,4.679c-.013.023-.024.048-.035.072a2.833,2.833,0,0,0-1.834.827L6.212,7.955a2.848,2.848,0,0,0-.825,1.839c-.024.011-.049.022-.072.035L2.81,11.4a1.054,1.054,0,0,0,.055,1.4l4.357,4.368a1.047,1.047,0,0,0,1.395.056l1.562-2.512c.013-.023.024-.048.035-.072a2.833,2.833,0,0,0,1.834-.827l.688-.69L24.851,26.5a.835.835,0,0,0,1.2.139l1.225-1.228A.841.841,0,0,0,27.14,24.2Z" transform="translate(-2.571 -1.928)"/></svg>