<svg xmlns="http://www.w3.org/2000/svg" width="44" height="44" viewBox="0 0 44 44"><defs><style>.a{fill:#001A5F;}.b{fill:#fff;}</style></defs><circle class="a" cx="22" cy="22" r="22"/><g transform="translate(9.866 9.838)"><path class="b" d="M13.5,18.127H24.612l-2.554,2.618L23.81,22.5l5.623-5.623L23.81,11.25,21.994,13l2.618,2.618H13.5Z" transform="translate(-5.065 -4.689)"/><g transform="translate(0 0)"><path class="b" d="M15.542,25.242A9.688,9.688,0,0,1,8.706,8.711,9.659,9.659,0,0,1,22.366,8.7l1.775-1.775a12.947,12.947,0,0,0-1.623-1.359,12.194,12.194,0,1,0,1.617,18.622l-1.769-1.769A9.588,9.588,0,0,1,15.542,25.242Z" transform="translate(-3.375 -3.375)"/><path class="b" d="M31.458,17.958h.07v.07h-.07Z" transform="translate(-8.062 -5.809)"/></g></g></svg>