<svg xmlns="http://www.w3.org/2000/svg" width="27.155" height="27.155" viewBox="0 0 27.155 27.155"><defs><style>.a{fill:#666;}</style></defs><path class="a" d="M26.3,8.186,21.218,3.1a2.909,2.909,0,0,0-2.057-.852H2.909A2.909,2.909,0,0,0,0,5.159V26.5A2.909,2.909,0,0,0,2.909,29.4H24.245A2.909,2.909,0,0,0,27.155,26.5V10.244A2.909,2.909,0,0,0,26.3,8.187ZM13.577,25.525a3.879,3.879,0,1,1,3.879-3.879A3.879,3.879,0,0,1,13.577,25.525ZM19.4,7.068V13.16a.727.727,0,0,1-.727.727H4.607a.727.727,0,0,1-.727-.727v-6.3a.727.727,0,0,1,.727-.727H18.458a.727.727,0,0,1,.514.213l.211.211a.727.727,0,0,1,.213.514Z" transform="translate(0 -2.25)"/></svg>