<svg xmlns="http://www.w3.org/2000/svg" width="22.342" height="22.969" viewBox="0 0 22.342 22.969"><defs><style>.a{fill:#001a5f;}</style></defs><path class="a" d="M23.112,15.61a8.95,8.95,0,0,0,.08-1.125,8.95,8.95,0,0,0-.08-1.125l2.423-1.895a.579.579,0,0,0,.138-.735l-2.3-3.974a.577.577,0,0,0-.7-.253l-2.86,1.148a8.391,8.391,0,0,0-1.941-1.125l-.436-3.043A.56.56,0,0,0,16.876,3H12.283a.56.56,0,0,0-.563.482l-.436,3.043A8.823,8.823,0,0,0,9.343,7.651L6.483,6.5a.56.56,0,0,0-.7.253l-2.3,3.974a.566.566,0,0,0,.138.735l2.423,1.895a9.108,9.108,0,0,0-.08,1.125,9.108,9.108,0,0,0,.08,1.125L3.623,17.5a.579.579,0,0,0-.138.735l2.3,3.974a.577.577,0,0,0,.7.253l2.86-1.148a8.39,8.39,0,0,0,1.941,1.125l.436,3.043a.56.56,0,0,0,.563.482h4.594a.56.56,0,0,0,.563-.482l.436-3.043a8.823,8.823,0,0,0,1.941-1.125l2.86,1.148a.56.56,0,0,0,.7-.253l2.3-3.974a.579.579,0,0,0-.138-.735L23.112,15.61ZM14.58,18.5a4.02,4.02,0,1,1,4.02-4.02A4.024,4.024,0,0,1,14.58,18.5Z" transform="translate(-3.406 -3)"/></svg>