<svg xmlns="http://www.w3.org/2000/svg" width="21.529" height="19.878" viewBox="0 0 21.529 19.878"><defs><style>.a{fill:#ff2d2d;}</style></defs><g transform="translate(24.904 24.378) rotate(180)"><path class="a" d="M13.217,24.378h8.9a1.9,1.9,0,0,0,1.77-1.211l2.956-7.009a1.981,1.981,0,0,0,.135-.725v-2a2.283,2.283,0,0,0-1.957-2.309h-6.17l.932-4.219.031-.311a1.5,1.5,0,0,0-.43-1.051L18.342,4.5l-6.522,6.59a1.993,1.993,0,0,0-.569,1.4v9.939A1.952,1.952,0,0,0,13.217,24.378Z" transform="translate(-2.077)"/><path class="a" d="M3.375,15.75H6.688v11.6H3.375Z" transform="translate(0 -2.968)"/></g></svg>